<svg xmlns="http://www.w3.org/2000/svg" width="512" height="512"><path fill-rule="evenodd" clip-rule="evenodd" fill="#006d84" d="M357.8 367h-52.6v52.6h52.6V367zm-74.2-140.8H231v52.6h52.6v-52.6zm74.2 70.4h-52.6v52.6h52.6v-52.6zm74.1-70.4h-52.6v52.6h52.6v-52.6zm-148.3 70.4H231v52.6h52.6v-52.6zm74.2-70.4h-52.6v52.6h52.6v-52.6zm74.1 70.4h-52.6v52.6h52.6v-52.6zM135.4 367H82.8v52.6h52.6V367zm0-70.4H82.8v52.6h52.6v-52.6zM418.3 40.8v23.1c9.1 8 14.8 19.7 14.8 32.8 0 24.2-19.6 43.8-43.8 43.8-24.2 0-43.8-19.6-43.8-43.8 0-13.1 5.7-24.8 14.8-32.8V40.8H155.6v23.1c9.1 8 14.8 19.7 14.8 32.8 0 24.2-19.6 43.8-43.8 43.8-24.2 0-43.8-19.6-43.8-43.8 0-13.1 5.8-24.8 14.8-32.8V40.8H0V507h512V40.8h-93.7zm46.9 419.4H46.8V169h418.5v291.2zm-255.6-234H157v52.6h52.6v-52.6zm0 140.8H157v52.6h52.6V367zm74 0H231v52.6h52.6V367zm-74-70.4H157v52.6h52.6v-52.6zm-83-174.4c12 0 21.8-9.8 21.8-21.8V21.8c0-12-9.8-21.8-21.8-21.8s-21.8 9.8-21.8 21.8v78.6c0 12 9.8 21.8 21.8 21.8zm262.7 0c12 0 21.8-9.8 21.8-21.8V21.8c0-12-9.8-21.8-21.8-21.8s-21.8 9.8-21.8 21.8v78.6c0 12 9.8 21.8 21.8 21.8z"/></svg>